<svg width="128" height="128" viewBox="0 0 128 128" fill="none" xmlns="http://www.w3.org/2000/svg">
<path d="M33.9539 89.4111C33.9539 87.572 32.463 86.0811 30.6239 86.0811C28.7848 86.0811 27.2939 87.572 27.2939 89.4111V95.1948C27.2939 97.0339 28.7848 98.5248 30.6239 98.5248C32.463 98.5248 33.9539 97.0339 33.9539 95.1948V89.4111Z" fill="black"/>
<path d="M100.028 89.4111C100.028 87.572 98.5373 86.0811 96.6982 86.0811C94.8591 86.0811 93.3682 87.572 93.3682 89.4111V95.1948C93.3682 97.0339 94.8591 98.5248 96.6982 98.5248C98.5373 98.5248 100.028 97.0339 100.028 95.1948V89.4111Z" fill="black"/>
<path d="M106.87 28.785H21.1299C16.1593 28.785 12.1299 32.8144 12.1299 37.785V84.8797C12.1299 89.8502 16.1593 93.8797 21.1299 93.8797H106.87C111.84 93.8797 115.87 89.8502 115.87 84.8797V37.785C115.87 32.8144 111.84 28.785 106.87 28.785Z" fill="white" stroke="black" stroke-width="2" stroke-linecap="round" stroke-linejoin="round"/>
<path d="M105.853 32.6023H21.9027C18.589 32.6023 15.9027 35.2886 15.9027 38.6023V84.625C15.9027 87.9387 18.589 90.625 21.9027 90.625H105.853C109.167 90.625 111.853 87.9387 111.853 84.625V38.6023C111.853 35.2886 109.167 32.6023 105.853 32.6023Z" stroke="black" stroke-width="2" stroke-linecap="round" stroke-linejoin="round"/>
<path d="M39.3317 72.1991C42.6228 72.1991 45.2907 69.5312 45.2907 66.2402C45.2907 62.9492 42.6228 60.2812 39.3317 60.2812C36.0407 60.2812 33.3728 62.9492 33.3728 66.2402C33.3728 69.5312 36.0407 72.1991 39.3317 72.1991Z" fill="white" stroke="black" stroke-width="2"/>
<path d="M39.3318 60.0183V32.7649" stroke="black" stroke-width="2" stroke-linecap="round" stroke-linejoin="round"/>
<path d="M52.301 72.1991C55.592 72.1991 58.2599 69.5312 58.2599 66.2402C58.2599 62.9492 55.592 60.2812 52.301 60.2812C49.0099 60.2812 46.342 62.9492 46.342 66.2402C46.342 69.5312 49.0099 72.1991 52.301 72.1991Z" fill="white" stroke="black" stroke-width="2"/>
<path d="M52.301 60.0183V32.7649" stroke="black" stroke-width="2" stroke-linecap="round" stroke-linejoin="round"/>
<path d="M65.271 72.1991C68.562 72.1991 71.2299 69.5312 71.2299 66.2402C71.2299 62.9492 68.562 60.2812 65.271 60.2812C61.9799 60.2812 59.312 62.9492 59.312 66.2402C59.312 69.5312 61.9799 72.1991 65.271 72.1991Z" fill="white" stroke="black" stroke-width="2"/>
<path d="M65.271 60.0183V32.7649" stroke="black" stroke-width="2" stroke-linecap="round" stroke-linejoin="round"/>
<path d="M98.0002 68.3187C101.33 66.3963 102.471 62.1387 100.548 58.809C98.6259 55.4793 94.3683 54.3385 91.0386 56.2609C87.7089 58.1833 86.5681 62.4409 88.4904 65.7706C90.4128 69.1003 94.6705 70.2411 98.0002 68.3187Z" fill="black"/>
<path d="M91.823 56.2044L78.1963 32.6023" stroke="black" stroke-width="2" stroke-linecap="round" stroke-linejoin="round"/>
</svg>
